<?xml version="1.0" encoding="utf-8"?>
<!-- Generator: Adobe Illustrator 16.0.0, SVG Export Plug-In . SVG Version: 6.00 Build 0)  -->
<!DOCTYPE svg PUBLIC "-//W3C//DTD SVG 1.1//EN" "http://www.w3.org/Graphics/SVG/1.1/DTD/svg11.dtd">
<svg version="1.1" xmlns="http://www.w3.org/2000/svg" xmlns:xlink="http://www.w3.org/1999/xlink" x="0px" y="0px"
	 width="190.833px" height="190.5px" viewBox="0 0 190.833 190.5" enable-background="new 0 0 190.833 190.5" xml:space="preserve">
<g id="Laag_1">
	<g>
		<circle stroke="#FFFFFF" stroke-width="8" stroke-miterlimit="10" cx="95.375" cy="95" r="90"/>
	</g>
	<g>
		<path d="M95.375,186.5c-50.453,0-91.5-41.047-91.5-91.5s41.047-91.5,91.5-91.5s91.5,41.047,91.5,91.5S145.828,186.5,95.375,186.5z
			 M95.375,6.5c-48.799,0-88.5,39.701-88.5,88.5s39.701,88.5,88.5,88.5s88.5-39.701,88.5-88.5S144.174,6.5,95.375,6.5z"/>
	</g>
</g>
<g id="Laag_2" display="none">
	<text transform="matrix(1 0 0 1 30.9712 98.8369)" display="inline" fill="#FFFFFF" font-family="'JCkg'" font-size="80.5229">M</text>
	<text transform="matrix(1 0 0 1 99.4546 88.1836)" display="inline" fill="#FFFFFF" font-family="'JCkg'" font-size="33.437">v</text>
	<text transform="matrix(1 0 0 1 83.6338 128.3438)" display="inline" fill="#FFFFFF" font-family="'JCkg'" font-size="33.437">d</text>
	<text transform="matrix(1 0 0 1 102.4829 149.4434)" display="inline" fill="#FFFFFF" font-family="'JCkg'" font-size="80.5229">R</text>
</g>
<g id="Laag_2_kopie" display="none">
	<text transform="matrix(1 0 0 1 29.7358 110.9922)" display="inline" fill="#FFFFFF" font-family="'Didot'" font-size="86.8035">M</text>
	
		<circle display="inline" fill="none" stroke="#FFFFFF" stroke-width="4" stroke-miterlimit="10" cx="101.789" cy="132.297" r="8.912"/>
	<g display="inline">
		<path fill="#FFFFFF" d="M109.484,141.719h0.015V82.345h-9.635v-1.215h16.493c0.694,0,1.389-0.014,2.083-0.043
			c0.694-0.028,1.389-0.072,2.083-0.13c0.694,0,1.389-0.014,2.083-0.043c0.694-0.029,1.389-0.043,2.083-0.043
			c3.414,0,6.424,0.188,9.027,0.564c2.604,0.377,5.035,1.462,7.292,3.255c2.024,1.562,3.457,3.328,4.297,5.295
			c0.838,1.968,1.259,3.819,1.259,5.556c0,0.868-0.16,1.983-0.478,3.342c-0.319,1.36-1.014,2.749-2.083,4.167
			c-1.072,1.419-2.619,2.721-4.645,3.906c-2.026,1.187-4.717,1.983-8.072,2.387v0.173c0.925,0.117,2.184,0.334,3.775,0.651
			c1.591,0.319,3.212,0.854,4.861,1.606c1.649,0.752,3.168,1.751,4.557,2.995c1.39,1.245,2.373,2.852,2.952,4.817
			c0.347,1.159,0.592,2.475,0.737,3.95c0.144,1.476,0.261,2.994,0.348,4.557s0.173,3.068,0.26,4.514
			c0.087,1.447,0.246,2.663,0.478,3.646c0.348,1.505,0.896,2.864,1.649,4.079c0.751,1.216,1.967,1.823,3.646,1.823
			c0.752,0,1.533-0.144,2.344-0.434c0.81-0.289,1.533-0.752,2.17-1.39l0.781,0.955c-0.29,0.232-0.622,0.478-0.998,0.738
			c-0.377,0.26-0.854,0.507-1.432,0.737c-0.58,0.23-1.289,0.419-2.127,0.564c-0.84,0.144-1.866,0.217-3.082,0.217
			c-2.314,0-4.239-0.29-5.772-0.868c-1.533-0.577-2.764-1.432-3.688-2.561c-0.927-1.128-1.606-2.518-2.04-4.166
			c-0.435-1.649-0.738-3.573-0.911-5.772l-0.608-7.899c-0.231-2.893-0.811-5.15-1.735-6.771c-0.927-1.62-2.012-2.807-3.256-3.559
			c-1.245-0.751-2.532-1.2-3.862-1.346c-1.332-0.144-2.489-0.217-3.473-0.217h-8.68v31.336h9.635v1.215h-18.33V141.719z
			 M118.179,109.167h7.986c1.62,0,3.096-0.202,4.428-0.607c1.33-0.404,2.474-1.114,3.429-2.127c0.954-1.012,1.692-2.387,2.213-4.123
			s0.781-3.935,0.781-6.597c0-3.008-0.391-5.425-1.172-7.248s-1.794-3.197-3.038-4.123c-1.245-0.925-2.634-1.533-4.166-1.823
			c-1.534-0.289-3.054-0.434-4.558-0.434c-1.042,0-2.098,0.015-3.168,0.043c-1.071,0.03-1.983,0.102-2.734,0.217V109.167z"/>
	</g>
</g>
<g id="Laag_2_kopie_2" display="none">
	<text transform="matrix(1 0 0 1 26.8389 124.4746)" display="inline" fill="#FFFFFF" font-family="'Didot'" font-size="90.6845">M</text>
	<text transform="matrix(1 0 0 1 96.7793 124.4746)" display="inline" fill="#FFFFFF" font-family="'Didot'" font-size="90.6845">R</text>
	
		<circle display="inline" fill="none" stroke="#FFFFFF" stroke-width="2" stroke-miterlimit="10" cx="101.255" cy="104.12" r="8.686"/>
</g>
<g id="Laag_2_kopie_3">
	<text transform="matrix(1 0 0 1 25.9399 135.7646)" fill="#FFFFFF" font-family="'OpenSans'" font-size="111.9814">M</text>
	<g>
		<path fill="#FFFFFF" d="M116.537,102.52v33.245h-1.298V55.815h13.929c9.806,0,17.051,1.887,21.734,5.641
			c4.685,3.754,7.026,9.405,7.026,16.95c0,10.571-5.358,17.716-16.075,21.434l21.707,35.924h-10.99l-19.355-33.245H116.537z
			 M116.537,94.537h12.74c6.562,0,11.373-1.303,14.435-3.91c3.062-2.605,4.594-6.515,4.594-11.728c0-5.285-1.559-9.094-4.676-11.428
			c-3.116-2.333-8.119-3.5-15.009-3.5h-12.084V94.537z"/>
	</g>
	<circle fill="none" stroke="#FFFFFF" stroke-width="6" stroke-miterlimit="10" cx="97.846" cy="123.039" r="10.726"/>
</g>
</svg>
